#!OML:ASF \\sashay\E\basketball\basketball\Project 1\Capture day 1\Session 1\Subject.ASF
:FULLY-SPECIFIED
:DEGREES
120
root -0.987394 12.9761 -2.20273 -176.568 8.08884 -187.115
lowerback 36.408 -1.7928 -2.5818
upperback 12.0396 0.625903 -4.52541
thorax -4.85205 2.05403 -3.75617
lowerneck -2.38657 -4.35765 -17.5096
upperneck -23.8185 0.0908247 21.9227
head -6.35065 1.31182 10.5224
rclavicle 5.66536e-015 -4.31363e-014
rhumerus 11.6075 -33.2012 -49.6861
rradius 84.8108
rwrist -25.8122
rhand -43.1661 65.8821
rfingers 7.12502
rthumb -16.0183 36.5243
lclavicle 5.66536e-015 -4.31363e-014
lhumerus -25.7182 24.6907 45.8498
lradius 74.3267
lwrist 49.0934
lhand -26.9213 18.3069
lfingers 7.12502
lthumb -0.344067 48.2864
rfemur -66.2128 -46.4073 27.1903
rtibia 94.0445
rfoot -24.6032 -16.1357
rtoes -19.0348
lfemur -29.4525 22.4162 11.4986
ltibia 52.4665
lfoot 4.73214 10.3188
ltoes -44.3447
121
root -0.530345 13.0671 -2.21922 -176.608 7.30506 -186.683
lowerback 36.9446 -1.59909 -3.16581
upperback 11.9182 0.718097 -4.14852
thorax -5.00891 2.09635 -3.12274
lowerneck -1.73713 -4.68861 -15.9497
upperneck -24.6014 -0.264357 21.7849
head -6.65797 1.02158 10.2266
rclavicle 1.3418e-014 2.33572e-015
rhumerus 10.368 -34.2497 -48.9052
rradius 84.8515
rwrist -26.2147
rhand -43.3927 65.3892
rfingers 7.12502
rthumb -16.2365 36.0491
lclavicle 1.3418e-014 2.33572e-015
lhumerus -24.1995 24.807 45.3891
lradius 74.1838
lwrist 48.2081
lhand -26.9065 18.0825
lfingers 7.12502
lthumb -0.329754 48.062
rfemur -65.6303 -46.9225 28.5015
rtibia 95.0282
rfoot -23.7976 -13.1688
rtoes -16.0655
lfemur -32.6062 24.0493 9.54504
ltibia 56.0407
lfoot 4.11204 8.81399
ltoes -45.5503
122
root -0.0807466 13.1567 -2.23277 -176.594 6.64684 -186.286
lowerback 37.3793 -1.40894 -3.76167
upperback 11.8839 0.79474 -3.84017
thorax -5.17272 2.12932 -2.52796
lowerneck -2.05811 -4.88212 -17.246
upperneck -23.968 -0.389807 23.3227
head -6.29543 0.985244 11.036
rclavicle 3.42904e-015 1.2424e-015
rhumerus 9.20822 -35.2092 -48.1663
rradius 84.863
rwrist -26.5117
rhand -43.8705 65.0406
rfingers 7.12502
rthumb -16.6965 35.7387
lclavicle 3.42904e-015 1.2424e-015
lhumerus -22.8185 24.8589 44.8322
lradius 74.0023
lwrist 47.4055
lhand -26.9453 17.4431
lfingers 7.12502
lthumb -0.367285 47.4225
rfemur -65.2769 -47.255 29.933
rtibia 96.0684
rfoot -21.0136 -12.3359
rtoes -21.6415
lfemur -35.916 25.7071 7.2839
ltibia 59.931
lfoot 3.1919 7.01696
ltoes -46.6806
123
root 0.377927 13.2642 -2.24434 -176.605 6.20206 -185.993
lowerback 37.7545 -1.14015 -4.54804
upperback 11.9121 0.918997 -3.61675
thorax -5.24072 2.19222 -1.9394
lowerneck -2.22429 -5.04925 -18.0311
upperneck -23.7656 -0.442177 24.4381
head -6.13269 0.98907 11.6205
rclavicle -6.23687e-015 2.45623e-014
rhumerus 8.22875 -36.3678 -47.879
rradius 84.8047
rwrist -26.4011
rhand -43.8954 65.3209
rfingers 7.12502
rthumb -16.7205 36.0209
lclavicle -6.23687e-015 2.45623e-014
lhumerus -21.4576 24.9731 44.1317
lradius 73.7579
lwrist 46.4161
lhand -27.0921 16.6763
lfingers 7.12502
lthumb -0.509028 46.6555
rfemur -64.9588 -47.1834 30.7755
rtibia 96.9301
rfoot -18.0747 -9.89635
rtoes -22.266
lfemur -39.0394 27.4868 4.6825
ltibia 63.8465
lfoot 1.76555 5.42282
ltoes -45.89
124
root 0.842778 13.345 -2.26648 -176.914 6.10808 -185.535
lowerback 38.3604 -0.677465 -5.56227
upperback 12.0191 1.24298 -3.40486
thorax -5.28947 2.36745 -1.32685
lowerneck -1.88952 -5.19378 -16.3427
upperneck -24.3949 -0.415635 24.3464
head -6.42467 0.902178 11.2924
rclavicle -9.14409e-015 4.77083e-015
rhumerus 7.47759 -37.5872 -47.9066
rradius 84.5921
rwrist -26.6755
rhand -43.4576 65.5243
rfingers 7.12502
rthumb -16.299 36.1893
lclavicle -9.14409e-015 4.77083e-015
lhumerus -20.1778 25.1754 43.2638
lradius 73.5966
lwrist 45.3558
lhand -27.2966 16.4553
lfingers 7.12502
lthumb -0.706596 46.4338
rfemur -63.9264 -47.0248 31.2603
rtibia 97.8465
rfoot -15.4507 -6.85592
rtoes -23.4313
lfemur -41.7438 29.7396 2.23768
ltibia 67.9287
lfoot 0.383376 3.87751
ltoes -44.5917
